<svg width="616.3px" height="122.1px" xmlns="http://www.w3.org/2000/svg" viewBox="-58.139996337890636 13.959991455078125 616.2799926757813 122.08001708984375" style="background: rgba(0, 0, 0, 0) none repeat scroll 0% 0%" preserveAspectRatio="xMidYMid"><defs><linearGradient id="editing-gradient-gradient" x1="0" x2="1" y1="0.5" y2="0.5" gradientUnits="objectBoundingBox"><stop offset="0" stop-color="#ff00ff"></stop><stop offset="1" stop-color="#00ffff"></stop></linearGradient></defs><g transform="matrix(1,0,0,1,5.8,11)"><g transform="matrix(1.1,0,0,1.1,8.6,-147)"><path d="M -17.7 215.7 L -31.6 215.7 L -23.5 173.4 L -9.4 173.4 L -17.7 215.7 Z M 38.1 216.9 L 38.1 216.9 L 38.1 216.9 Q 30.3 216.9 30.3 210.9 L 30.3 210.9 L 30.3 210.9 Q 30.3 208.3 31.4 203.2 L 31.4 203.2 L 31.4 203.2 Q 32.6 198.1 32.9 196.1 L 32.9 196.1 L 32.9 196.1 Q 33.8 191.4 33.8 189.9 L 33.8 189.9 L 33.8 189.9 Q 33.8 186.7 31.4 186.7 L 31.4 186.7 L 31.4 186.7 Q 29.8 186.7 28.3 188.9 L 28.3 188.9 L 28.3 188.9 Q 26.7 191.1 26 195.5 L 26 195.5 L 22.1 215.7 L 9.6 216.9 L 13 199.5 L 13 199.5 Q 13.6 196.6 14.1 193.4 L 14.1 193.4 L 14.1 193.4 Q 14.6 190.1 14.6 189.6 L 14.6 189.6 L 14.6 189.6 Q 14.6 186.7 12.5 186.7 L 12.5 186.7 L 12.5 186.7 Q 11 186.7 9.4 188.8 L 9.4 188.8 L 9.4 188.8 Q 7.8 191 6.9 195.5 L 6.9 195.5 L 3 215.7 L -9.6 216.9 L -2.9 183 L 7.5 181.7 L 6.4 188.2 L 6.4 188.2 Q 8.1 184.7 11.2 183.2 L 11.2 183.2 L 11.2 183.2 Q 14.3 181.7 19.1 181.7 L 19.1 181.7 L 19.1 181.7 Q 21.8 181.7 23.6 183.1 L 23.6 183.1 L 23.6 183.1 Q 25.4 184.4 26 186.6 L 26 186.6 L 26 186.6 Q 27.1 184.4 29.8 183 L 29.8 183 L 29.8 183 Q 32.6 181.7 36 181.7 L 36 181.7 L 36 181.7 Q 39.5 181.7 41.2 182.5 L 41.2 182.5 L 41.2 182.5 Q 42.9 183.2 43.9 184.4 L 43.9 184.4 L 43.9 184.4 Q 45.6 186.7 45.6 190.8 L 45.6 190.8 L 45.6 190.8 Q 45.6 194.8 43.9 203.2 L 43.9 203.2 L 43.9 203.2 Q 43 207.3 43 208.8 L 43 208.8 L 43 208.8 Q 43 210.3 43.9 211.2 L 43.9 211.2 L 43.9 211.2 Q 44.7 212.1 46 212.2 L 46 212.2 L 46 212.2 Q 45.4 214.4 43.2 215.7 L 43.2 215.7 L 43.2 215.7 Q 40.9 216.9 38.1 216.9 Z M 53.7 213.7 L 53.7 213.7 L 53.7 213.7 Q 52.2 212.1 51.5 209.4 L 51.5 209.4 L 51.5 209.4 Q 50.9 206.8 50.9 202.5 L 50.9 202.5 L 50.9 202.5 Q 50.9 198.2 52.3 194.3 L 52.3 194.3 L 52.3 194.3 Q 53.8 190.4 56.5 187.6 L 56.5 187.6 L 56.5 187.6 Q 62 181.7 71.1 181.7 L 71.1 181.7 L 71.1 181.7 Q 74.4 181.7 76.7 182.8 L 76.7 182.8 L 87.7 181.7 L 82.9 206.7 L 82.9 206.7 Q 82.7 207.5 82.7 208.9 L 82.7 208.9 L 82.7 208.9 Q 82.7 210.3 83.6 211.2 L 83.6 211.2 L 83.6 211.2 Q 84.5 212.1 85.7 212.2 L 85.7 212.2 L 85.7 212.2 Q 85.1 214.4 82.8 215.7 L 82.8 215.7 L 82.8 215.7 Q 80.4 216.9 77.8 216.9 L 77.8 216.9 L 77.8 216.9 Q 75.2 216.9 73.4 215.9 L 73.4 215.9 L 73.4 215.9 Q 71.7 215 71.2 213.3 L 71.2 213.3 L 71.2 213.3 Q 70.1 214.9 68 215.9 L 68 215.9 L 68 215.9 Q 65.8 216.9 62.9 216.9 L 62.9 216.9 L 62.9 216.9 Q 60 216.9 57.6 216.2 L 57.6 216.2 L 57.6 216.2 Q 55.2 215.4 53.7 213.7 Z M 67.2 187.8 L 67.2 187.8 L 67.2 187.8 Q 66.5 188.9 65.8 190.9 L 65.8 190.9 L 65.8 190.9 Q 65.2 192.8 64.1 198 L 64.1 198 L 64.1 198 Q 63.1 203.2 63.1 207 L 63.1 207 L 63.1 207 Q 63.1 210.7 63.7 211.8 L 63.7 211.8 L 63.7 211.8 Q 64.2 212.8 65.3 212.8 L 65.3 212.8 L 65.3 212.8 Q 67.3 212.8 68.8 210.9 L 68.8 210.9 L 68.8 210.9 Q 70.3 208.9 70.9 205.5 L 70.9 205.5 L 74.3 186.7 L 74.3 186.7 Q 72.9 185.6 71.4 185.6 L 71.4 185.6 L 71.4 185.6 Q 69.8 185.6 68.9 186.1 L 68.9 186.1 L 68.9 186.1 Q 68 186.6 67.2 187.8 Z M 95.4 188.9 L 95.4 188.9 L 95.4 188.9 Q 97.6 185.8 100.9 183.8 L 100.9 183.8 L 100.9 183.8 Q 104.2 181.7 108.2 181.7 L 108.2 181.7 L 108.2 181.7 Q 112.2 181.7 114.2 183 L 114.2 183 L 126.7 181.7 L 122.4 206.3 L 122.4 206.3 Q 120.1 218.9 115.4 223.8 L 115.4 223.8 L 115.4 223.8 Q 110.8 228.5 102 228.5 L 102 228.5 L 102 228.5 Q 95.3 228.5 91.4 226.3 L 91.4 226.3 L 91.4 226.3 Q 87.6 224.2 87.6 220.7 L 87.6 220.7 L 87.6 220.7 Q 87.6 218.1 89.6 216.6 L 89.6 216.6 L 89.6 216.6 Q 91.6 215.1 94.6 215.1 L 94.6 215.1 L 94.6 215.1 Q 97.3 215.1 99.4 216.3 L 99.4 216.3 L 99.4 216.3 Q 100.6 216.9 101.2 217.8 L 101.2 217.8 L 101.2 217.8 Q 99.7 219.1 99.7 221.2 L 99.7 221.2 L 99.7 221.2 Q 99.7 224 102.3 224 L 102.3 224 L 102.3 224 Q 106.5 224 109 213.9 L 109 213.9 L 109 213.9 Q 109.7 211.1 110.3 208.4 L 110.3 208.4 L 110.3 208.4 Q 107.4 211.9 100.8 211.9 L 100.8 211.9 L 100.8 211.9 Q 96.3 211.9 93.7 209.7 L 93.7 209.7 L 93.7 209.7 Q 91.1 207.5 91.1 202.4 L 91.1 202.4 L 91.1 202.4 Q 91.1 199.2 92.1 195.6 L 92.1 195.6 L 92.1 195.6 Q 93.2 192 95.4 188.9 Z M 103.7 202.6 L 103.7 202.6 L 103.7 202.6 Q 103.7 207 106 207 L 106 207 L 106 207 Q 107.5 207 109 205.3 L 109 205.3 L 109 205.3 Q 110.1 203.9 110.6 202 L 110.6 202 L 113.8 185.5 L 113.8 185.5 Q 113.5 185.4 113.2 185.3 L 113.2 185.3 L 113.2 185.3 Q 112.6 185.1 111.7 185.1 L 111.7 185.1 L 111.7 185.1 Q 107.8 185.1 105.5 191.5 L 105.5 191.5 L 105.5 191.5 Q 103.7 196.5 103.7 202.6 Z M 155.1 204.8 L 155.1 204.8 L 155.1 204.8 Q 156.7 205.9 156.7 208.3 L 156.7 208.3 L 156.7 208.3 Q 156.7 210.7 155.5 212.3 L 155.5 212.3 L 155.5 212.3 Q 154.3 213.8 152.3 214.8 L 152.3 214.8 L 152.3 214.8 Q 148.2 216.9 143.8 216.9 L 143.8 216.9 L 143.8 216.9 Q 139.4 216.9 136.8 216 L 136.8 216 L 136.8 216 Q 134.2 215 132.5 213.2 L 132.5 213.2 L 132.5 213.2 Q 129.1 209.8 129.1 203.6 L 129.1 203.6 L 129.1 203.6 Q 129.1 194 134.3 188.1 L 134.3 188.1 L 134.3 188.1 Q 140 181.7 149.7 181.7 L 149.7 181.7 L 149.7 181.7 Q 155.8 181.7 158.8 184.3 L 158.8 184.3 L 158.8 184.3 Q 161.1 186.2 161.1 189.4 L 161.1 189.4 L 161.1 189.4 Q 161.1 200.6 141.6 200.6 L 141.6 200.6 L 141.6 200.6 Q 141.4 202.3 141.4 203.7 L 141.4 203.7 L 141.4 203.7 Q 141.4 206.6 142.7 207.8 L 142.7 207.8 L 142.7 207.8 Q 144 208.9 146.4 208.9 L 146.4 208.9 L 146.4 208.9 Q 148.8 208.9 151.4 207.8 L 151.4 207.8 L 151.4 207.8 Q 154 206.6 155.1 204.8 Z M 142.1 197.9 L 142.1 197.9 L 142.1 197.9 Q 146.6 197.9 149.2 195 L 149.2 195 L 149.2 195 Q 151.9 192.4 151.9 188.1 L 151.9 188.1 L 151.9 188.1 Q 151.9 186.6 151.3 185.8 L 151.3 185.8 L 151.3 185.8 Q 150.8 185 149.7 185 L 149.7 185 L 149.7 185 Q 148.6 185 147.7 185.4 L 147.7 185.4 L 147.7 185.4 Q 146.7 185.8 145.8 187.2 L 145.8 187.2 L 145.8 187.2 Q 143.4 190.4 142.1 197.9 Z M 202.4 195 L 215.3 193.9 L 215.3 193.9 Q 210.7 204 210.7 215.7 L 210.7 215.7 L 210.7 215.7 Q 208.9 216.9 206.4 216.9 L 206.4 216.9 L 206.4 216.9 Q 203.9 216.9 202.3 215.8 L 202.3 215.8 L 202.3 215.8 Q 200.7 214.6 200.4 213.4 L 200.4 213.4 L 200.4 213.4 Q 198.8 215 196.2 216 L 196.2 216 L 196.2 216 Q 193.6 216.9 190.8 216.9 L 190.8 216.9 L 190.8 216.9 Q 188.1 216.9 185.7 216 L 185.7 216 L 185.7 216 Q 183.3 215.1 181.4 213.2 L 181.4 213.2 L 181.4 213.2 Q 177.3 208.8 177.3 200.6 L 177.3 200.6 L 177.3 200.6 Q 177.3 187.8 184.2 180.1 L 184.2 180.1 L 184.2 180.1 Q 191.2 172.1 203.7 172.1 L 203.7 172.1 L 203.7 172.1 Q 212.3 172.1 215.4 176.6 L 215.4 176.6 L 215.4 176.6 Q 216.4 178 216.4 179.7 L 216.4 179.7 L 216.4 179.7 Q 216.4 181.4 215.6 182.9 L 215.6 182.9 L 215.6 182.9 Q 214.9 184.3 213.7 185.4 L 213.7 185.4 L 213.7 185.4 Q 211 188 207.6 188 L 207.6 188 L 207.6 188 Q 206.3 188 205 187.6 L 205 187.6 L 205 187.6 Q 205.2 185.6 205.2 183.4 L 205.2 183.4 L 205.2 183.4 Q 205.2 181.2 205.1 180.1 L 205.1 180.1 L 205.1 180.1 Q 204.9 179.1 204.5 178.3 L 204.5 178.3 L 204.5 178.3 Q 203.7 176.6 201.9 176.6 L 201.9 176.6 L 201.9 176.6 Q 200 176.6 198 178.5 L 198 178.5 L 198 178.5 Q 196 180.5 194.4 183.7 L 194.4 183.7 L 194.4 183.7 Q 190.9 190.8 190.9 199.5 L 190.9 199.5 L 190.9 199.5 Q 190.9 203.4 192.4 206.2 L 192.4 206.2 L 192.4 206.2 Q 194.1 209.3 197 209.3 L 197 209.3 L 197 209.3 Q 198.1 209.3 199 208.8 L 199 208.8 L 199 208.8 Q 199.9 208.3 200.3 207.9 L 200.3 207.9 L 202.4 195 Z M 221.2 213.7 L 221.2 213.7 L 221.2 213.7 Q 219.7 212.1 219 209.4 L 219 209.4 L 219 209.4 Q 218.4 206.8 218.4 202.5 L 218.4 202.5 L 218.4 202.5 Q 218.4 198.2 219.8 194.3 L 219.8 194.3 L 219.8 194.3 Q 221.3 190.4 224 187.6 L 224 187.6 L 224 187.6 Q 229.5 181.7 238.6 181.7 L 238.6 181.7 L 238.6 181.7 Q 241.8 181.7 244.2 182.8 L 244.2 182.8 L 255.2 181.7 L 250.4 206.7 L 250.4 206.7 Q 250.2 207.5 250.2 208.9 L 250.2 208.9 L 250.2 208.9 Q 250.2 210.3 251.1 211.2 L 251.1 211.2 L 251.1 211.2 Q 252 212.1 253.2 212.2 L 253.2 212.2 L 253.2 212.2 Q 252.6 214.4 250.3 215.7 L 250.3 215.7 L 250.3 215.7 Q 247.9 216.9 245.3 216.9 L 245.3 216.9 L 245.3 216.9 Q 242.7 216.9 240.9 215.9 L 240.9 215.9 L 240.9 215.9 Q 239.2 215 238.6 213.3 L 238.6 213.3 L 238.6 213.3 Q 237.6 214.9 235.4 215.9 L 235.4 215.9 L 235.4 215.9 Q 233.3 216.9 230.4 216.9 L 230.4 216.9 L 230.4 216.9 Q 227.4 216.9 225.1 216.2 L 225.1 216.2 L 225.1 216.2 Q 222.7 215.4 221.2 213.7 Z M 234.7 187.8 L 234.7 187.8 L 234.7 187.8 Q 234 188.9 233.3 190.9 L 233.3 190.9 L 233.3 190.9 Q 232.7 192.8 231.6 198 L 231.6 198 L 231.6 198 Q 230.6 203.2 230.6 207 L 230.6 207 L 230.6 207 Q 230.6 210.7 231.2 211.8 L 231.2 211.8 L 231.2 211.8 Q 231.7 212.8 232.8 212.8 L 232.8 212.8 L 232.8 212.8 Q 234.8 212.8 236.3 210.9 L 236.3 210.9 L 236.3 210.9 Q 237.8 208.9 238.4 205.5 L 238.4 205.5 L 241.8 186.7 L 241.8 186.7 Q 240.4 185.6 238.9 185.6 L 238.9 185.6 L 238.9 185.6 Q 237.3 185.6 236.4 186.1 L 236.4 186.1 L 236.4 186.1 Q 235.4 186.6 234.7 187.8 Z M 273.9 212.1 L 273.9 212.1 L 273.9 212.1 Q 271.9 216.9 265.6 216.9 L 265.6 216.9 L 265.6 216.9 Q 262.4 216.9 260.3 214.7 L 260.3 214.7 L 260.3 214.7 Q 258.7 212.8 258.7 210.7 L 258.7 210.7 L 258.7 210.7 Q 258.7 205.9 260.9 195.4 L 260.9 195.4 L 265.6 170.9 L 278.6 169.6 L 272.4 202 L 272.4 202 Q 271.3 206.7 271.3 208.4 L 271.3 208.4 L 271.3 208.4 Q 271.3 212 273.9 212.1 Z M 294.6 212.1 L 294.6 212.1 L 294.6 212.1 Q 292.7 216.9 286.3 216.9 L 286.3 216.9 L 286.3 216.9 Q 283.1 216.9 281.1 214.7 L 281.1 214.7 L 281.1 214.7 Q 279.4 212.8 279.4 210.7 L 279.4 210.7 L 279.4 210.7 Q 279.4 205.9 281.6 195.4 L 281.6 195.4 L 286.3 170.9 L 299.3 169.6 L 293.1 202 L 293.1 202 Q 292 206.7 292 208.4 L 292 208.4 L 292 208.4 Q 292 212 294.6 212.1 Z M 326 204.8 L 326 204.8 L 326 204.8 Q 327.6 205.9 327.6 208.3 L 327.6 208.3 L 327.6 208.3 Q 327.6 210.7 326.4 212.3 L 326.4 212.3 L 326.4 212.3 Q 325.2 213.8 323.2 214.8 L 323.2 214.8 L 323.2 214.8 Q 319.1 216.9 314.7 216.9 L 314.7 216.9 L 314.7 216.9 Q 310.3 216.9 307.7 216 L 307.7 216 L 307.7 216 Q 305.1 215 303.3 213.2 L 303.3 213.2 L 303.3 213.2 Q 300 209.8 300 203.6 L 300 203.6 L 300 203.6 Q 300 194 305.2 188.1 L 305.2 188.1 L 305.2 188.1 Q 310.8 181.7 320.6 181.7 L 320.6 181.7 L 320.6 181.7 Q 326.7 181.7 329.7 184.3 L 329.7 184.3 L 329.7 184.3 Q 332 186.2 332 189.4 L 332 189.4 L 332 189.4 Q 332 200.6 312.5 200.6 L 312.5 200.6 L 312.5 200.6 Q 312.2 202.3 312.2 203.7 L 312.2 203.7 L 312.2 203.7 Q 312.2 206.6 313.6 207.8 L 313.6 207.8 L 313.6 207.8 Q 314.9 208.9 317.3 208.9 L 317.3 208.9 L 317.3 208.9 Q 319.7 208.9 322.3 207.8 L 322.3 207.8 L 322.3 207.8 Q 324.9 206.6 326 204.8 Z M 312.9 197.9 L 312.9 197.9 L 312.9 197.9 Q 317.5 197.9 320.1 195 L 320.1 195 L 320.1 195 Q 322.7 192.4 322.7 188.1 L 322.7 188.1 L 322.7 188.1 Q 322.7 186.6 322.2 185.8 L 322.2 185.8 L 322.2 185.8 Q 321.6 185 320.6 185 L 320.6 185 L 320.6 185 Q 319.5 185 318.5 185.4 L 318.5 185.4 L 318.5 185.4 Q 317.6 185.8 316.7 187.2 L 316.7 187.2 L 316.7 187.2 Q 314.3 190.4 312.9 197.9 Z M 354.2 197.7 L 354.2 197.7 L 354.2 197.7 Q 356.5 193.6 356.5 189.4 L 356.5 189.4 L 356.5 189.4 Q 356.5 186.7 354.5 186.7 L 354.5 186.7 L 354.5 186.7 Q 352.9 186.7 351.3 189.3 L 351.3 189.3 L 351.3 189.3 Q 349.7 191.9 349.2 195.3 L 349.2 195.3 L 345.8 215.7 L 332.6 216.9 L 339.1 183 L 349.7 181.7 L 348.5 188.2 L 348.5 188.2 Q 351.7 181.7 358.7 181.7 L 358.7 181.7 L 358.7 181.7 Q 362.4 181.7 364.4 183.7 L 364.4 183.7 L 364.4 183.7 Q 366.4 185.6 366.4 189.5 L 366.4 189.5 L 366.4 189.5 Q 366.4 193.4 363.9 195.9 L 363.9 195.9 L 363.9 195.9 Q 361.3 198.4 356.8 198.4 L 356.8 198.4 L 356.8 198.4 Q 354.9 198.4 354.2 197.7 Z M 387.8 208.4 L 387.8 208.4 L 387.8 208.4 Q 384.5 211.9 378.4 211.9 L 378.4 211.9 L 378.4 211.9 Q 370.8 211.9 369.2 206.3 L 369.2 206.3 L 369.2 206.3 Q 368.7 204.6 368.7 202.8 L 368.7 202.8 L 368.7 202.8 Q 368.7 200.9 369.1 199 L 369.1 199 L 372.1 183 L 385.1 181.7 L 381.6 200.4 L 381.6 200.4 Q 381.4 201.2 381.2 202.1 L 381.2 202.1 L 381.2 202.1 Q 381 203 381 203.9 L 381 203.9 L 381 203.9 Q 381 204.8 381.4 205.4 L 381.4 205.4 L 381.4 205.4 Q 381.7 206.1 382.1 206.4 L 382.1 206.4 L 382.1 206.4 Q 382.9 207 384.3 207 L 384.3 207 L 384.3 207 Q 385.6 207 386.8 205.3 L 386.8 205.3 L 386.8 205.3 Q 388 203.6 388.6 200.7 L 388.6 200.7 L 392.1 183 L 404.7 181.7 L 399.9 206.9 L 399.9 206.9 Q 397.6 219.2 392.7 224 L 392.7 224 L 392.7 224 Q 390.2 226.5 387 227.5 L 387 227.5 L 387 227.5 Q 383.7 228.5 379.6 228.5 L 379.6 228.5 L 379.6 228.5 Q 372.8 228.5 369 226.4 L 369 226.4 L 369 226.4 Q 365.2 224.3 365.2 220.8 L 365.2 220.8 L 365.2 220.8 Q 365.2 218.2 367.2 216.6 L 367.2 216.6 L 367.2 216.6 Q 369.1 215.1 372.2 215.1 L 372.2 215.1 L 372.2 215.1 Q 374.9 215.1 376.9 216.3 L 376.9 216.3 L 376.9 216.3 Q 378.2 217 378.7 217.9 L 378.7 217.9 L 378.7 217.9 Q 377.3 219.2 377.3 221.3 L 377.3 221.3 L 377.3 221.3 Q 377.3 224.1 379.8 224.1 L 379.8 224.1 L 379.8 224.1 Q 384 224.1 386.5 214.4 L 386.5 214.4 L 386.5 214.4 Q 387.2 211.5 387.8 208.4 Z" fill="url(#editing-gradient-gradient)"></path></g></g><style>text {
  font-size: 64px;
  font-family: Arial Black;
  dominant-baseline: central;
  text-anchor: middle;
}</style></svg>